<?xml version="1.0" encoding="iso-8859-1"?>
<svg xmlns="http://www.w3.org/2000/svg" xmlns:xlink="http://www.w3.org/1999/xlink" version="1.1" id="Capa_1" x="0px" y="0px" viewBox="0 0 489.901 489.901" style="enable-background:new 0 0 489.901 489.901; fill: #53565d;" xml:space="preserve">
<g>
	<path d="M469.2,102.95H20.8c-11.4,0-20.8,9.4-20.8,20.8v242.4c0,11.4,9.4,20.8,20.8,20.8h447.3c11.4,0,20.8-8.3,21.8-20.8v-242.4   C490,112.35,480.6,102.95,469.2,102.95z M448.4,346.35H412v-61.4c0-11.4-9.4-20.8-20.8-20.8s-20.8,9.4-20.8,20.8v61.4h-32.3v-37.4   c0-11.4-9.4-20.8-20.8-20.8s-20.8,9.4-20.8,20.8v37.5h-31.2v-61.4c0-11.4-9.4-20.8-20.8-20.8s-20.8,9.4-20.8,20.8v61.4h-31.2v-37.5   c0-11.4-9.4-20.8-20.8-20.8c-11.4,0-20.8,9.4-20.8,20.8v37.5h-32.3v-61.4c0-11.4-9.4-20.8-20.8-20.8s-20.8,9.4-20.8,20.8v61.4H40.6   v-201.9h407.8V346.35z"/>
</g>
</svg>