<svg viewBox="0 0 32 32" xmlns="http://www.w3.org/2000/svg"><path d="m16 2.5859l-4.707 4.707 1.4141 1.4141 2.293-2.293v5.5859h2v-5.5859l2.293 2.293 1.4141-1.4141-4.707-4.707zm-8.707 8.707l-4.707 4.707 4.707 4.707 1.4141-1.4141-2.293-2.293h6.5859v-2h-6.5859l2.293-2.293-1.4141-1.4141zm17.414 0l-1.4141 1.4141 2.293 2.293h-6.5859v2h6.5859l-2.293 2.293 1.4141 1.4141 4.707-4.707-4.707-4.707zm-9.707 7.707v6.5859l-2.293-2.293-1.4141 1.4141 4.707 4.707 4.707-4.707-1.4141-1.4141-2.293 2.293v-6.5859h-2z" style="block-progression:tb;isolation:auto;mix-blend-mode:normal;text-decoration-color:#000;text-decoration-line:none;text-decoration-style:solid;text-indent:0;text-transform:none"/>
</svg>
